# xmcd
#
# Track frame offsets:
#	150
#	20516
#	38862
#	56405
#	74287
#	87896
#	100864
#	116195
#	136644
#	151840
#	167308
#	182118
#	197951
#
# Disc length: 2891
#
# Revision: 1
# Processed by: cddbd v1.5.1PL0 Copyright (c) Steve Scherf et al.
# Submitted via: cdripper 1.0.9
# Normalized: r0:TDELIM( - )
#
DISCID=a40b490d
DTITLE=Brooks and Dunn - Steers and Stripes
DYEAR=1900
DGENRE=Country
TTITLE0=01 - Only In America
TTITLE1=02 - The Last Thing I Do
TTITLE2=03 - The Long Goodbye
TTITLE3=04 - Go West
TTITLE4=05 - My Heart Is Lost To You
TTITLE5=06 - Good Girls Go To Heaven
TTITLE6=08 - Ain't Nothing Bout You
TTITLE7=09 - Unloved
TTITLE8=10 - Deny Deny Deny
TTITLE9=11 - Lucky Me Lonely You
TTITLE10=12 - I Fall
TTITLE11=13 - Every River
TTITLE12=14 - See Jane Dance
EXTD=
EXTT0=
EXTT1=
EXTT2=
EXTT3=
EXTT4=
EXTT5=
EXTT6=
EXTT7=
EXTT8=
EXTT9=
EXTT10=
EXTT11=
EXTT12=
PLAYORDER=
